<svg xmlns="http://www.w3.org/2000/svg" viewBox="0 0 512 512"><g data-name="Security Check"><path d="M353.658 64.673H158.596a33.288 33.288 0 0 0-33.25 33.25v343.585h19.95V163.04h221.662v278.468h19.95V97.923a33.288 33.288 0 0 0-33.25-33.25zM145.296 143.09V97.923a13.313 13.313 0 0 1 13.3-13.3h195.062a13.313 13.313 0 0 1 13.3 13.3v45.167z"/><path d="M289.173 249.21a42.121 42.121 0 1 0-66.088 0 33.295 33.295 0 0 0-22.93 31.587v82.022h19.81v84.508h72.32V362.82h19.806v-82.021a33.286 33.286 0 0 0-22.918-31.588zm-33.044-48.213a22.171 22.171 0 1 1-22.171 22.172 22.196 22.196 0 0 1 22.17-22.171zm36.016 141.871h-19.807v84.509h-32.42v-84.508h-19.81v-62.071a13.313 13.313 0 0 1 13.3-13.3h45.437a13.313 13.313 0 0 1 13.3 13.3zM408.177 306.014l11.44-16.339 41.192 28.845-11.442 16.338zM414.162 247.944h50.284v19.95h-50.284zM408.022 210.18l41.195-28.843 11.443 16.343-41.195 28.844zM51.59 318.514l41.19-28.846 11.442 16.338-41.19 28.846zM47.953 247.944H98.24v19.95H47.953zM51.75 197.66l11.443-16.341 41.19 28.845-11.443 16.342zM167.119 105.687h24.386v19.95h-24.386zM208.125 105.687h24.386v19.95h-24.386z"/></g></svg>