<svg xmlns="http://www.w3.org/2000/svg" viewBox="0 0 64 64"><path d="M32 34.88a10 10 0 0 1-10-10V17a1 1 0 0 1 1-1h18a1 1 0 0 1 1 1v7.88a10 10 0 0 1-10 10zM24 18v6.88a8 8 0 1 0 16 0V18z"/><path d="M41 18H23a1 1 0 0 1-.71-.29L20.55 16A3 3 0 0 1 18 13v-1a3 3 0 0 1 2.69-3l5.24-3.28a11.63 11.63 0 0 1 12.14 0L43.31 9A3 3 0 0 1 46 12v1a3 3 0 0 1-2.55 3l-1.74 1.74A1 1 0 0 1 41 18zm-17.59-2h17.18l1.7-1.71A1 1 0 0 1 43 14a1 1 0 0 0 1-1v-1a1 1 0 0 0-1-1 1 1 0 0 1-.53-.15L37 7.44a9.61 9.61 0 0 0-10 0l-5.46 3.41A1 1 0 0 1 21 11a1 1 0 0 0-1 1v1a1 1 0 0 0 1 1 1 1 0 0 1 .71.29z"/><path d="M36 23h-8a6 6 0 0 1-6-6 1 1 0 0 1 1-1h18a1 1 0 0 1 1 1 6 6 0 0 1-6 6zm-11.87-5A4 4 0 0 0 28 21h8a4 4 0 0 0 3.87-3zM53 60a1 1 0 0 1-1-.75l-2.6-10.38a17.73 17.73 0 0 0-14.66-13.65 17.3 17.3 0 0 0-5.47 0A17.74 17.74 0 0 0 14.6 48.84L12 59.25a1 1 0 1 1-1.94-.5l2.63-10.38A19.71 19.71 0 0 1 29 33.24a19.44 19.44 0 0 1 6.09 0A19.71 19.71 0 0 1 51.34 48.4L54 58.75a1 1 0 0 1-.75 1.25z"/><path d="M47.77 39a1 1 0 0 1-.7-.29 21.49 21.49 0 0 0-5.27-3.82 1 1 0 1 1 .9-1.78 23 23 0 0 1 5.77 4.18 1 1 0 0 1 0 1.41 1 1 0 0 1-.7.3zM16.23 39a1 1 0 0 1-.71-.3 1 1 0 0 1 0-1.41 22.48 22.48 0 0 1 1.85-1.64 23 23 0 0 1 3.91-2.54 1 1 0 0 1 .92 1.78 20.67 20.67 0 0 0-3.58 2.32 22.58 22.58 0 0 0-1.7 1.5 1 1 0 0 1-.69.29zM32 39a2.64 2.64 0 0 1-2.34-1.43l-1.44-2.89a1 1 0 0 1 0-.91 1 1 0 0 1 .73-.53 19.5 19.5 0 0 1 6.1 0 1 1 0 0 1 .73.53 1 1 0 0 1 0 .91l-1.44 2.88A2.64 2.64 0 0 1 32 39zm-1.36-4 .8 1.61a.66.66 0 0 0 1.12 0l.8-1.6a17.64 17.64 0 0 0-2.72.04z"/><path d="M35 60a1 1 0 0 1-1-.91l-1.89-20c0-.09-.21-.1-.22 0l-1.89 20a1 1 0 0 1-1.09.91 1 1 0 0 1-.91-1.09l1.9-20a2.11 2.11 0 0 1 4.2 0l1.9 20a1 1 0 0 1-.91 1.09zM44 47h-5a1 1 0 0 1 0-2h5a1 1 0 0 1 0 2zM32 14a3 3 0 1 1 3-3 3 3 0 0 1-3 3zm0-4a1 1 0 1 0 1 1 1 1 0 0 0-1-1z"/></svg>