<svg xmlns="http://www.w3.org/2000/svg" viewBox="0 0 512 512" style="enable-background:new 0 0 512 512" xml:space="preserve"><path style="fill:#c5c5ca" d="M201.619 249.788v99.227h48.148v-85.051z"/><path transform="scale(-1) rotate(11.526 2379.953 -4431.347)" style="fill:#88888f" d="M421.98 204.069h50.442v72.219H421.98z"/><path style="fill:#d8d8da" d="M59.139 161.044 44.71 231.811l377.42 76.95 24.046-117.944z"/><path style="fill:#c5c5ca" d="m410.065 190.817-22.606 110.875 34.671 7.069 24.046-117.944z"/><path style="fill:#d8d8da" d="M273.841 421.237H9.028v-72.222h264.813c19.943 0 36.111 16.167 36.111 36.111 0 19.944-16.168 36.111-36.111 36.111z"/><path style="fill:#c5c5ca" d="M273.841 349.015h-48.148c19.944 0 36.111 16.168 36.111 36.111 0 19.944-16.167 36.111-36.111 36.111h48.148c19.944 0 36.111-16.167 36.111-36.111 0-19.943-16.167-36.111-36.111-36.111z"/><path style="fill:#ededed" d="m59.139 161.044 330.242 67.332 113.591-75.117L78.376 66.69z"/><path style="fill:#d8d8da" d="m78.376 66.69-4.758 23.337 369.169 75.269-85.496 56.537 32.088 6.543 113.593-75.117z"/><path style="fill:#ededed" d="M9.028 454.339A9.027 9.027 0 0 1 0 445.311v-120.37c0-4.986 4.041-9.028 9.028-9.028s9.028 4.042 9.028 9.028v120.37c-.001 4.985-4.041 9.028-9.028 9.028z"/><path style="fill:#2e2d31" d="M511.834 151.539a9.026 9.026 0 0 0-7.059-7.126L80.178 57.844a9.026 9.026 0 0 0-10.649 7.043L35.865 230.008a9.026 9.026 0 0 0 7.043 10.649l149.683 30.517v68.813H18.055v-15.046c0-4.986-4.041-9.028-9.028-9.028S0 319.955 0 324.941v120.37c0 4.986 4.041 9.028 9.028 9.028s9.028-4.042 9.028-9.028v-15.046h255.786c24.89 0 45.139-20.249 45.139-45.139 0-24.89-20.249-45.139-45.139-45.139h-15.046v-55.315l161.53 32.933a9.069 9.069 0 0 0 1.813.184c4.201 0 7.964-2.949 8.836-7.226l5.411-26.538 26.538 5.411a9.069 9.069 0 0 0 1.813.184c4.201 0 7.964-2.949 8.836-7.226L488 211.63a9.026 9.026 0 0 0-7.043-10.649l-25.822-5.265 52.816-34.926a9.032 9.032 0 0 0 3.883-9.251zm-210.91 233.587c0 14.934-12.15 27.083-27.083 27.083H18.055v-54.166h255.786c14.933 0 27.083 12.15 27.083 27.083zm-60.184-45.139h-30.092v-65.132l30.092 6.135v58.997zM55.359 224.769l10.821-53.075 321.396 65.527a9.04 9.04 0 0 0 6.783-1.315l38.617-25.536-17.889 87.742-359.728-73.343zm402.324 45.173-17.691-3.607 10.821-53.075 17.691 3.606-10.821 53.076zm-70.165-51.159-317.73-64.781 15.63-76.664 394.394 80.411-92.294 61.034z"/></svg>